<svg width="2885" height="1422" viewBox="0 0 2885 1422" fill="none" xmlns="http://www.w3.org/2000/svg">
<path fill-rule="evenodd" clip-rule="evenodd" d="M2167.89 694.234C2198.65 722.834 2364.51 812.833 2411.55 839.564C2520.96 901.721 2551.07 948.332 2707.4 942.076C2809.22 912.636 2903.23 811.56 2881.25 673.515C2860.64 543.865 2755.09 500.071 2659.27 443.033C2472.55 331.963 2294.66 234.408 2092.35 109.173C2010.69 58.5812 1889.7 -36.1302 1762.94 14.4078C1654.07 57.7958 1580.62 187.174 1629.5 320.913C1665.96 420.689 1785.99 472.365 1877.85 526.505C1962.82 576.583 2073.32 648.246 2167.89 694.234V694.234Z" fill="#109D58"/>
<path fill-rule="evenodd" clip-rule="evenodd" d="M698.844 704.659C654.183 699.053 494.62 596.893 456.354 574.035C422.645 553.993 377.516 526.639 339.716 505.324C296.323 480.867 231.259 486.663 193.511 469.384C96.0334 505.053 -6.95765 583.081 0.369334 724.945C7.56687 864.155 115.997 915.532 215.442 973.762C413.918 1089.95 605.844 1206.74 797.071 1315.8C884.089 1365.45 992.182 1457.75 1131.45 1401.66C1232.34 1361.06 1312.45 1220.82 1246.45 1084.13C1202.31 992.802 1086.94 945.297 984.205 884.251C907.673 838.777 729.214 749.13 698.844 704.659V704.659Z" fill="#4286F4"/>
<path fill-rule="evenodd" clip-rule="evenodd" d="M193.396 469.328C231.145 486.607 296.209 480.811 339.602 505.268C377.402 526.582 422.531 553.937 456.24 573.979C494.507 596.837 654.07 698.997 698.731 704.603L1139.67 447.796C1347.98 320.828 1282.48 72.7425 1114.76 12.3732C974.8 -38.0023 797.167 107.274 633.358 202.527C567.777 240.661 236.892 422.852 193.396 469.328V469.328Z" fill="#EA4235"/>
<path fill-rule="evenodd" clip-rule="evenodd" d="M2707.45 942.073C2551.12 948.329 2521.01 901.718 2411.6 839.561C2364.56 812.83 2198.7 722.831 2167.94 694.23C2182.55 717.306 2173.28 692.687 2170.51 725.322C1886.93 914.556 1591.98 964.85 1615.47 1221.79C1623.39 1308.68 1704.04 1394.13 1780.16 1415.76C1908.27 1452.22 2121.01 1297.49 2260.92 1212.94C2338.36 1166.11 2668.97 983.158 2707.45 942.073Z" fill="#FABD05"/>
</svg>
