<svg width="3020" height="700" viewBox="0 0 3020 700" fill="none" xmlns="http://www.w3.org/2000/svg">
<path fill-rule="evenodd" clip-rule="evenodd" d="M849.979 343.192C862.039 354.406 927.066 389.692 945.51 400.173C988.408 424.543 1000.21 442.818 1061.51 440.365C1101.43 428.823 1138.29 389.193 1129.67 335.069C1121.59 284.237 1080.2 267.066 1042.63 244.703C969.425 201.155 899.679 162.906 820.359 113.804C788.343 93.9683 740.906 56.8342 691.207 76.649C648.522 93.6603 619.724 144.387 638.89 196.822C653.182 235.942 700.242 256.203 736.258 277.43C769.574 297.064 812.898 325.162 849.979 343.192V343.192Z" fill="#1B1919"/>
<path fill-rule="evenodd" clip-rule="evenodd" d="M274 347.28C256.49 345.082 193.929 305.028 178.926 296.065C165.709 288.207 148.015 277.482 133.194 269.125C116.181 259.537 90.6711 261.809 75.871 255.034C37.6524 269.019 -2.72793 299.612 0.144807 355.234C2.96679 409.814 45.4795 429.958 84.4696 452.789C162.287 498.344 237.537 544.132 312.512 586.894C346.63 606.358 389.011 642.547 443.613 620.556C483.172 604.638 514.579 549.654 488.704 496.061C471.396 460.254 426.162 441.628 385.883 417.694C355.877 399.865 285.907 364.716 274 347.28V347.28Z" fill="#1B1919"/>
<path fill-rule="evenodd" clip-rule="evenodd" d="M75.8262 255.012C90.6264 261.787 116.137 259.515 133.15 269.103C147.97 277.46 165.664 288.185 178.881 296.043C193.884 305.006 256.445 345.06 273.956 347.258L446.837 246.57C528.512 196.789 502.831 99.5206 437.072 75.8512C382.196 56.1002 312.55 113.06 248.324 150.406C222.612 165.357 92.8799 236.79 75.8262 255.012V255.012Z" fill="#1B1919"/>
<path fill-rule="evenodd" clip-rule="evenodd" d="M1061.53 440.364C1000.23 442.817 988.428 424.542 945.53 400.172C927.086 389.691 862.059 354.405 849.999 343.191C855.724 352.239 852.091 342.586 851.004 355.382C739.82 429.576 624.179 449.295 633.386 550.036C636.492 584.101 668.114 617.603 697.958 626.088C748.185 640.381 831.596 579.715 886.452 546.563C916.813 528.203 1046.44 456.473 1061.53 440.364Z" fill="#1B1919"/>
<path d="M1374.54 249.407C1366.85 259.432 1356.19 267.024 1342.57 272.182C1328.94 277.341 1313.46 279.92 1296.14 279.92C1278.33 279.92 1262.56 275.881 1248.84 267.802C1235.11 259.724 1224.5 248.19 1217.01 233.201C1209.61 218.115 1205.77 200.547 1205.48 180.497V163.853C1205.48 131.734 1213.16 106.671 1228.54 88.665C1243.92 70.5615 1265.38 61.5098 1292.93 61.5098C1316.58 61.5098 1335.36 67.3496 1349.28 79.0293C1363.2 90.709 1371.57 107.547 1374.39 129.544H1338.19C1334.1 103.946 1319.26 91.147 1293.66 91.147C1277.11 91.147 1264.51 97.1328 1255.84 109.104C1247.28 120.979 1242.85 138.45 1242.56 161.517V177.869C1242.56 200.839 1247.38 218.699 1257.01 231.449C1266.75 244.102 1280.23 250.429 1297.45 250.429C1316.34 250.429 1329.77 246.146 1337.75 237.581V195.972H1293.95V167.941H1374.54V249.407ZM1415.13 277V64.4297H1477.9C1496.69 64.4297 1513.33 68.6149 1527.83 76.9854C1542.43 85.3558 1553.72 97.2301 1561.71 112.608C1569.69 127.987 1573.68 145.604 1573.68 165.459V176.117C1573.68 196.264 1569.64 213.978 1561.56 229.259C1553.58 244.54 1542.14 256.317 1527.25 264.59C1512.46 272.863 1495.47 277 1476.3 277H1415.13ZM1452.06 94.2129V247.509H1476.15C1495.52 247.509 1510.36 241.474 1520.68 229.405C1531.1 217.239 1536.4 199.817 1536.59 177.139V165.313C1536.59 142.246 1531.58 124.629 1521.56 112.462C1511.53 100.296 1496.98 94.2129 1477.9 94.2129H1452.06ZM1773.4 249.407C1765.71 259.432 1755.05 267.024 1741.43 272.182C1727.8 277.341 1712.33 279.92 1695 279.92C1677.19 279.92 1661.42 275.881 1647.7 267.802C1633.97 259.724 1623.37 248.19 1615.87 233.201C1608.47 218.115 1604.63 200.547 1604.34 180.497V163.853C1604.34 131.734 1612.03 106.671 1627.4 88.665C1642.78 70.5615 1664.24 61.5098 1691.79 61.5098C1715.44 61.5098 1734.22 67.3496 1748.14 79.0293C1762.06 90.709 1770.43 107.547 1773.25 129.544H1737.05C1732.96 103.946 1718.12 91.147 1692.52 91.147C1675.97 91.147 1663.37 97.1328 1654.71 109.104C1646.14 120.979 1641.71 138.45 1641.42 161.517V177.869C1641.42 200.839 1646.24 218.699 1655.87 231.449C1665.61 244.102 1679.09 250.429 1696.31 250.429C1715.2 250.429 1728.63 246.146 1736.61 237.581V195.972H1692.81V167.941H1773.4V249.407ZM1888.45 277V64.4297H1951.22C1970.01 64.4297 1986.65 68.6149 2001.15 76.9854C2015.75 85.3558 2027.04 97.2301 2035.03 112.608C2043.01 127.987 2047 145.604 2047 165.459V176.117C2047 196.264 2042.96 213.978 2034.88 229.259C2026.9 244.54 2015.46 256.317 2000.57 264.59C1985.78 272.863 1968.79 277 1949.62 277H1888.45ZM1925.38 94.2129V247.509H1949.47C1968.84 247.509 1983.68 241.474 1994 229.405C2004.41 217.239 2009.72 199.817 2009.91 177.139V165.313C2009.91 142.246 2004.9 124.629 1994.88 112.462C1984.85 100.296 1970.3 94.2129 1951.22 94.2129H1925.38ZM2149.92 279.92C2127.44 279.92 2109.19 272.863 2095.18 258.75C2081.26 244.54 2074.3 225.658 2074.3 202.104V197.724C2074.3 181.957 2077.32 167.892 2083.35 155.531C2089.48 143.073 2098.05 133.389 2109.05 126.478C2120.04 119.568 2132.31 116.112 2145.84 116.112C2167.35 116.112 2183.94 122.974 2195.62 136.698C2207.4 150.421 2213.29 169.839 2213.29 194.95V209.258H2110.07C2111.14 222.3 2115.47 232.617 2123.06 240.209C2130.75 247.801 2140.39 251.597 2151.97 251.597C2168.22 251.597 2181.46 245.027 2191.68 231.887L2210.8 250.137C2204.48 259.578 2196.01 266.926 2185.4 272.182C2174.89 277.341 2163.06 279.92 2149.92 279.92ZM2145.69 144.582C2135.96 144.582 2128.07 147.988 2122.04 154.801C2116.1 161.614 2112.31 171.104 2110.65 183.271H2178.25V180.643C2177.47 168.768 2174.31 159.814 2168.76 153.779C2163.21 147.647 2155.52 144.582 2145.69 144.582ZM2294.61 232.033L2328.04 119.032H2364.68L2309.94 277H2279.13L2223.94 119.032H2260.74L2294.61 232.033ZM2512.87 186.92H2427.32V277H2390.38V64.4297H2525.43V94.2129H2427.32V157.429H2512.87V186.92ZM2617.7 279.92C2595.21 279.92 2576.96 272.863 2562.95 258.75C2549.03 244.54 2542.07 225.658 2542.07 202.104V197.724C2542.07 181.957 2545.09 167.892 2551.12 155.531C2557.25 143.073 2565.82 133.389 2576.82 126.478C2587.82 119.568 2600.08 116.112 2613.61 116.112C2635.12 116.112 2651.71 122.974 2663.39 136.698C2675.17 150.421 2681.06 169.839 2681.06 194.95V209.258H2577.84C2578.91 222.3 2583.24 232.617 2590.83 240.209C2598.52 247.801 2608.16 251.597 2619.74 251.597C2635.99 251.597 2649.23 245.027 2659.45 231.887L2678.58 250.137C2672.25 259.578 2663.78 266.926 2653.17 272.182C2642.66 277.341 2630.84 279.92 2617.7 279.92ZM2613.46 144.582C2603.73 144.582 2595.85 147.988 2589.81 154.801C2583.87 161.614 2580.08 171.104 2578.42 183.271H2646.02V180.643C2645.24 168.768 2642.08 159.814 2636.53 153.779C2630.98 147.647 2623.29 144.582 2613.46 144.582ZM2797.27 234.077C2797.27 227.751 2794.64 222.933 2789.39 219.624C2784.23 216.314 2775.61 213.394 2763.55 210.864C2751.48 208.333 2741.4 205.121 2733.32 201.228C2715.61 192.663 2706.75 180.253 2706.75 163.999C2706.75 150.373 2712.5 138.985 2723.98 129.836C2735.47 120.687 2750.07 116.112 2767.78 116.112C2786.66 116.112 2801.89 120.784 2813.48 130.128C2825.16 139.472 2831 151.589 2831 166.481H2795.52C2795.52 159.668 2792.99 154.023 2787.93 149.545C2782.87 144.971 2776.15 142.684 2767.78 142.684C2759.99 142.684 2753.62 144.484 2748.65 148.085C2743.79 151.687 2741.35 156.505 2741.35 162.539C2741.35 167.99 2743.64 172.223 2748.22 175.241C2752.79 178.258 2762.04 181.324 2775.96 184.438C2789.87 187.456 2800.77 191.106 2808.66 195.388C2816.64 199.573 2822.53 204.635 2826.32 210.572C2830.22 216.509 2832.16 223.711 2832.16 232.179C2832.16 246.389 2826.28 257.923 2814.5 266.78C2802.72 275.54 2787.29 279.92 2768.22 279.92C2755.27 279.92 2743.74 277.584 2733.62 272.912C2723.49 268.24 2715.61 261.816 2709.97 253.641C2704.32 245.465 2701.5 236.656 2701.5 227.215H2735.95C2736.44 235.586 2739.6 242.058 2745.44 246.633C2751.28 251.11 2759.02 253.349 2768.66 253.349C2778 253.349 2785.1 251.597 2789.97 248.093C2794.84 244.492 2797.27 239.82 2797.27 234.077ZM2907.64 80.6353V119.032H2935.53V145.312H2907.64V233.493C2907.64 239.528 2908.81 243.908 2911.15 246.633C2913.58 249.261 2917.86 250.575 2924 250.575C2928.08 250.575 2932.22 250.088 2936.41 249.115V276.562C2928.33 278.801 2920.54 279.92 2913.05 279.92C2885.79 279.92 2872.17 264.882 2872.17 234.807V145.312H2846.18V119.032H2872.17V80.6353H2907.64ZM1322.71 572.251C1322.71 562.908 1319.4 555.705 1312.78 550.644C1306.26 545.583 1294.44 540.473 1277.31 535.314C1260.18 530.156 1246.55 524.413 1236.43 518.087C1217.06 505.921 1207.37 490.056 1207.37 470.492C1207.37 453.362 1214.33 439.249 1228.25 428.153C1242.27 417.058 1260.42 411.51 1282.71 411.51C1297.5 411.51 1310.69 414.235 1322.27 419.686C1333.85 425.136 1342.96 432.923 1349.57 443.045C1356.19 453.07 1359.5 464.214 1359.5 476.478H1322.71C1322.71 465.382 1319.21 456.72 1312.2 450.491C1305.29 444.164 1295.36 441.001 1282.42 441.001C1270.35 441.001 1260.95 443.58 1254.24 448.739C1247.62 453.897 1244.31 461.1 1244.31 470.346C1244.31 478.133 1247.91 484.654 1255.11 489.91C1262.32 495.068 1274.19 500.129 1290.74 505.093C1307.28 509.96 1320.57 515.556 1330.59 521.883C1340.62 528.112 1347.97 535.314 1352.64 543.49C1357.31 551.569 1359.65 561.058 1359.65 571.959C1359.65 589.674 1352.83 603.787 1339.21 614.298C1325.68 624.713 1307.28 629.92 1284.02 629.92C1268.64 629.92 1254.48 627.097 1241.54 621.452C1228.69 615.71 1218.66 607.826 1211.46 597.801C1204.36 587.776 1200.8 576.096 1200.8 562.762H1237.74C1237.74 574.831 1241.73 584.174 1249.71 590.793C1257.69 597.411 1269.13 600.721 1284.02 600.721C1296.87 600.721 1306.5 598.141 1312.93 592.983C1319.45 587.727 1322.71 580.817 1322.71 572.251ZM1458.19 629.92C1435.71 629.92 1417.46 622.863 1403.45 608.75C1389.53 594.54 1382.57 575.658 1382.57 552.104V547.724C1382.57 531.957 1385.59 517.892 1391.62 505.531C1397.75 493.073 1406.32 483.389 1417.32 476.478C1428.31 469.568 1440.58 466.112 1454.11 466.112C1475.62 466.112 1492.21 472.974 1503.89 486.698C1515.67 500.421 1521.56 519.839 1521.56 544.95V559.258H1418.34C1419.41 572.3 1423.74 582.617 1431.33 590.209C1439.02 597.801 1448.66 601.597 1460.24 601.597C1476.49 601.597 1489.73 595.027 1499.95 581.887L1519.08 600.137C1512.75 609.578 1504.28 616.926 1493.67 622.182C1483.16 627.341 1471.33 629.92 1458.19 629.92ZM1453.96 494.582C1444.23 494.582 1436.34 497.988 1430.31 504.801C1424.37 511.614 1420.58 521.104 1418.92 533.271H1486.52V530.643C1485.74 518.768 1482.58 509.814 1477.03 503.779C1471.48 497.647 1463.79 494.582 1453.96 494.582ZM1643.61 627C1642.05 623.983 1640.69 619.068 1639.52 612.254C1628.23 624.031 1614.41 629.92 1598.06 629.92C1582.19 629.92 1569.25 625.394 1559.22 616.342C1549.2 607.291 1544.19 596.097 1544.19 582.763C1544.19 565.925 1550.42 553.029 1562.87 544.074C1575.43 535.022 1593.34 530.497 1616.6 530.497H1638.35V520.131C1638.35 511.955 1636.07 505.434 1631.49 500.567C1626.92 495.604 1619.96 493.122 1610.61 493.122C1602.54 493.122 1595.92 495.166 1590.76 499.253C1585.6 503.244 1583.02 508.354 1583.02 514.583H1547.54C1547.54 505.921 1550.42 497.842 1556.16 490.348C1561.9 482.756 1569.69 476.819 1579.52 472.536C1589.45 468.254 1600.49 466.112 1612.66 466.112C1631.15 466.112 1645.9 470.784 1656.9 480.128C1667.89 489.374 1673.54 502.417 1673.83 519.255V590.501C1673.83 604.711 1675.83 616.05 1679.82 624.518V627H1643.61ZM1604.63 601.451C1611.64 601.451 1618.21 599.747 1624.34 596.341C1630.57 592.934 1635.24 588.36 1638.35 582.617V552.834H1619.23C1606.09 552.834 1596.21 555.121 1589.59 559.696C1582.97 564.27 1579.66 570.743 1579.66 579.113C1579.66 585.926 1581.9 591.377 1586.38 595.465C1590.95 599.455 1597.04 601.451 1604.63 601.451ZM1799.53 584.077C1799.53 577.751 1796.91 572.933 1791.65 569.624C1786.49 566.314 1777.88 563.394 1765.81 560.864C1753.74 558.333 1743.67 555.121 1735.59 551.228C1717.87 542.663 1709.02 530.253 1709.02 513.999C1709.02 500.373 1714.76 488.985 1726.24 479.836C1737.73 470.687 1752.33 466.112 1770.04 466.112C1788.92 466.112 1804.16 470.784 1815.74 480.128C1827.42 489.472 1833.26 501.589 1833.26 516.481H1797.78C1797.78 509.668 1795.25 504.023 1790.19 499.545C1785.13 494.971 1778.41 492.684 1770.04 492.684C1762.26 492.684 1755.88 494.484 1750.92 498.085C1746.05 501.687 1743.62 506.505 1743.62 512.539C1743.62 517.99 1745.9 522.223 1750.48 525.241C1755.05 528.258 1764.3 531.324 1778.22 534.438C1792.14 537.456 1803.04 541.106 1810.92 545.388C1818.9 549.573 1824.79 554.635 1828.59 560.572C1832.48 566.509 1834.43 573.711 1834.43 582.179C1834.43 596.389 1828.54 607.923 1816.76 616.78C1804.98 625.54 1789.56 629.92 1770.48 629.92C1757.54 629.92 1746 627.584 1735.88 622.912C1725.76 618.24 1717.87 611.816 1712.23 603.641C1706.58 595.465 1703.76 586.656 1703.76 577.215H1738.22C1738.7 585.586 1741.87 592.058 1747.71 596.633C1753.54 601.11 1761.28 603.349 1770.92 603.349C1780.26 603.349 1787.37 601.597 1792.23 598.093C1797.1 594.492 1799.53 589.82 1799.53 584.077ZM1858.81 546.556C1858.81 531.081 1861.87 517.162 1868.01 504.801C1874.14 492.343 1882.75 482.805 1893.85 476.186C1904.94 469.47 1917.69 466.112 1932.1 466.112C1953.41 466.112 1970.69 472.974 1983.93 486.698C1997.26 500.421 2004.46 518.622 2005.53 541.3L2005.68 549.622C2005.68 565.195 2002.66 579.113 1996.63 591.377C1990.69 603.641 1982.13 613.13 1970.93 619.846C1959.84 626.562 1946.99 629.92 1932.39 629.92C1910.1 629.92 1892.24 622.523 1878.81 607.729C1865.48 592.837 1858.81 573.03 1858.81 548.308V546.556ZM1894.29 549.622C1894.29 565.876 1897.64 578.627 1904.36 587.873C1911.07 597.022 1920.42 601.597 1932.39 601.597C1944.36 601.597 1953.66 596.925 1960.28 587.581C1966.99 578.237 1970.35 564.562 1970.35 546.556C1970.35 530.594 1966.89 517.941 1959.98 508.597C1953.17 499.253 1943.88 494.582 1932.1 494.582C1920.52 494.582 1911.32 499.205 1904.5 508.451C1897.69 517.6 1894.29 531.324 1894.29 549.622ZM2068.6 469.032L2069.63 487.282C2081.31 473.169 2096.64 466.112 2115.62 466.112C2148.51 466.112 2165.25 484.946 2165.84 522.613V627H2130.36V524.657C2130.36 514.632 2128.17 507.235 2123.79 502.465C2119.51 497.599 2112.45 495.166 2102.62 495.166C2088.31 495.166 2077.66 501.638 2070.65 514.583V627H2035.17V469.032H2068.6ZM2417.24 627H2274.31V602.619L2345.12 525.387C2355.34 513.999 2362.59 504.509 2366.87 496.917C2371.25 489.228 2373.44 481.539 2373.44 473.85C2373.44 463.728 2370.57 455.552 2364.83 449.323C2359.19 443.094 2351.54 439.979 2341.91 439.979C2330.42 439.979 2321.52 443.483 2315.19 450.491C2308.87 457.499 2305.7 467.086 2305.7 479.252H2270.23C2270.23 466.307 2273.15 454.676 2278.98 444.359C2284.92 433.944 2293.34 425.866 2304.24 420.124C2315.24 414.381 2327.89 411.51 2342.2 411.51C2362.84 411.51 2379.09 416.717 2390.96 427.131C2402.94 437.448 2408.92 451.756 2408.92 470.054C2408.92 480.663 2405.9 491.808 2399.87 503.487C2393.93 515.07 2384.15 528.258 2370.52 543.052L2318.55 598.677H2417.24V627ZM2582.8 537.504C2582.8 568.066 2577.06 591.134 2565.58 606.707C2554.19 622.182 2536.81 629.92 2513.45 629.92C2490.48 629.92 2473.16 622.377 2461.48 607.291C2449.9 592.107 2443.96 569.672 2443.67 539.986V503.195C2443.67 472.633 2449.36 449.712 2460.75 434.431C2472.24 419.15 2489.71 411.51 2513.16 411.51C2536.42 411.51 2553.75 418.956 2565.14 433.847C2576.62 448.739 2582.51 471.028 2582.8 500.713V537.504ZM2547.33 497.793C2547.33 477.841 2544.6 463.241 2539.15 453.995C2533.7 444.651 2525.04 439.979 2513.16 439.979C2501.58 439.979 2493.06 444.408 2487.61 453.265C2482.16 462.024 2479.29 475.748 2479 494.436V542.614C2479 562.47 2481.77 577.264 2487.32 586.997C2492.87 596.73 2501.58 601.597 2513.45 601.597C2524.84 601.597 2533.26 597.119 2538.71 588.165C2544.16 579.113 2547.03 565 2547.33 545.826V497.793ZM2710.26 627H2674.93V456.331L2622.81 474.142V444.213L2705.73 413.7H2710.26V627ZM2884.72 538.088C2872.85 550.644 2858.98 556.922 2843.11 556.922C2824.43 556.922 2809.53 550.401 2798.44 537.358C2787.34 524.219 2781.8 506.991 2781.8 485.676C2781.8 471.66 2784.62 458.958 2790.26 447.571C2795.91 436.183 2803.94 427.326 2814.35 421C2824.77 414.673 2836.84 411.51 2850.56 411.51C2871.97 411.51 2888.96 419.491 2901.51 435.453C2914.07 451.415 2920.35 472.779 2920.35 499.545V509.473C2920.35 547.821 2911.68 577.069 2894.36 597.217C2877.03 617.364 2851.19 627.584 2816.83 627.876H2812.6V598.531H2817.71C2838.64 598.239 2854.7 593.226 2865.89 583.493C2877.08 573.663 2883.36 558.528 2884.72 538.088ZM2850.56 529.183C2857.66 529.183 2864.33 527.139 2870.56 523.051C2876.79 518.963 2881.61 513.318 2885.01 506.115V492.246C2885.01 476.575 2881.8 463.971 2875.38 454.433C2868.96 444.894 2860.63 440.125 2850.41 440.125C2840.19 440.125 2832.02 444.359 2825.89 452.827C2819.85 461.197 2816.83 471.806 2816.83 484.654C2816.83 497.988 2819.9 508.743 2826.03 516.919C2832.16 525.095 2840.34 529.183 2850.56 529.183Z" fill="#1B1919"/>
</svg>
